<svg width="496" height="215" viewBox="0 0 496 215" fill="none" xmlns="http://www.w3.org/2000/svg">
<path d="M232.351 89.6867C230.18 89.3421 227.836 88.6875 225.389 87.6883C222.942 86.6202 220.804 85.4487 218.943 84.105C215.117 81.3141 212.153 77.7308 210.119 73.286C208.086 68.8413 207.052 63.8109 207.052 58.1947C207.052 55.6106 207.293 52.8886 207.741 50.0633C208.189 47.2035 208.878 44.6538 209.74 42.3109C212.394 34.8341 217.599 29.149 225.423 25.2556C227.939 24.0497 230.766 23.1883 233.868 22.5681C236.97 21.9824 240.52 21.6723 244.484 21.6723C256.272 21.6723 265.165 24.4631 271.197 30.0104C277.229 35.4888 280.228 43.6202 280.228 54.3357C280.228 61.7436 278.746 68.1522 275.747 73.5962C272.852 78.9712 268.198 83.6226 261.856 87.5849C265.234 90.238 268.75 92.6843 272.369 94.9239C276.092 97.1635 279.642 99.0585 283.089 100.575C286.26 101.884 289.638 102.917 293.223 103.641C296.876 104.433 300.357 104.847 303.735 104.847C304.942 104.847 306.01 104.778 307.01 104.64C308.078 104.571 309.698 104.33 311.87 103.951V105.95C310.078 106.466 308.078 106.983 305.803 107.431C303.563 107.879 301.254 108.292 298.841 108.637C296.463 109.05 294.05 109.326 291.603 109.533C289.155 109.74 286.846 109.843 284.64 109.843C281.4 109.843 278.194 109.498 275.023 108.844C271.852 108.258 268.991 107.362 266.475 106.156C265.269 105.639 263.89 104.95 262.304 104.158C260.788 103.434 259.271 102.642 257.755 101.78C256.238 100.919 254.825 100.092 253.48 99.2997C252.171 98.5072 251.137 97.8526 250.413 97.3013C248.103 95.7163 246.104 94.407 244.45 93.3389C242.795 92.2708 241.554 91.5817 240.693 91.2716C240.279 91.1338 239.555 90.9271 238.521 90.6859L234.351 90.1002L232.351 89.6867ZM243.657 24.2909C239.831 24.2909 236.419 25.2901 233.42 27.254C230.525 29.1835 228.284 32.0088 226.767 35.7989C226.25 37.0048 225.768 38.4175 225.389 40.0713C224.975 41.6562 224.63 43.4135 224.286 45.3429C224.01 47.2035 223.803 49.0986 223.596 51.097C223.459 53.0264 223.39 54.887 223.39 56.7476C223.39 67.1186 225.079 74.9744 228.456 80.2804C231.903 85.5176 237.039 88.1362 243.829 88.1362C250.378 88.1362 255.342 85.4487 258.72 80.1082C262.098 74.6987 263.787 66.7396 263.787 56.2997C263.787 45.7909 262.063 37.8317 258.616 32.4912C255.273 27.0128 250.275 24.2909 243.657 24.2909ZM317.626 81.6586C314.593 85.1042 311.629 87.5849 308.802 89.101C306.01 90.617 303.149 91.3061 300.151 91.1683C298.289 91.0304 296.497 90.617 294.774 89.8934C293.05 89.1699 291.637 88.1707 290.5 86.9303C288.431 84.6907 287.432 81.2796 287.432 76.6971V56.6442V51.5793C287.432 50.649 287.328 49.9599 287.122 49.512C286.984 48.9952 286.708 48.6162 286.225 48.4094C285.777 48.1338 285.088 47.9615 284.226 47.8237C283.433 47.6859 282.399 47.5136 281.159 47.3413V45.3429C282.606 45.3429 284.019 45.274 285.329 45.1362C286.639 44.9984 288.397 44.7572 290.603 44.4471C291.809 44.2404 292.843 44.0681 293.774 43.9647C294.705 43.8269 295.566 43.6891 296.359 43.5513C297.221 43.3445 298.083 43.1723 298.944 43.0689C299.806 42.9311 300.806 42.7588 301.909 42.5865C301.771 43.7925 301.667 44.7572 301.598 45.5497C301.598 46.2732 301.598 46.9968 301.598 47.7203C301.598 48.8574 301.564 49.6498 301.495 50.0977C301.495 50.5112 301.495 50.8213 301.495 51.097V52.0961V54.2668V71.7356C301.495 75.3189 302.219 78.0064 303.666 79.867C305.114 81.7276 307.251 82.6578 310.009 82.6578C311.525 82.6578 312.732 82.4511 313.593 82.0721C314.524 81.6586 315.351 80.9695 316.075 80.0048C316.868 78.9367 317.281 77.9375 317.281 76.9383V56.6787V51.6138C317.281 50.6835 317.178 49.9944 316.971 49.5465C316.833 49.0296 316.558 48.6506 316.075 48.4439C315.627 48.1683 314.938 47.996 314.076 47.8582C313.283 47.7203 312.249 47.5481 311.008 47.3758V45.3774C312.456 45.3774 313.869 45.3085 315.179 45.1707C316.489 45.0328 318.247 44.7917 320.453 44.4816C321.659 44.2748 322.693 44.1026 323.624 43.9992C324.554 43.8614 325.416 43.7236 326.209 43.5857C327.07 43.379 327.932 43.2067 328.794 43.1034C329.656 42.9655 330.655 42.7933 331.758 42.621C331.62 44.4127 331.517 46.4455 331.448 48.7885C331.379 51.097 331.345 52.9575 331.345 54.3357V76.9727C331.345 79.867 331.379 81.8998 331.448 83.0369C331.517 84.105 331.689 84.8974 331.931 85.4143C332.137 85.8277 332.516 86.2067 333.137 86.6202C333.792 86.9647 334.516 87.1715 335.308 87.3093L338.204 87.7917V89.9623C335.481 89.8245 333.413 89.7212 331.965 89.6522C330.517 89.6522 328.932 89.6522 327.208 89.6522C326.071 89.6522 324.796 89.6522 323.348 89.6522C321.9 89.7212 319.97 89.8245 317.592 89.9623V81.6586H317.626ZM354.266 65.8782C354.404 69.2548 354.714 71.9768 355.266 74.0096C355.783 76.008 356.679 77.972 357.954 79.9704C359.229 81.9687 360.918 83.5881 363.124 84.8285C365.365 86.0344 367.674 86.6202 370.087 86.6202C371.224 86.6202 372.19 86.5857 373.051 86.5168C373.913 86.379 374.775 86.1723 375.636 85.9311C376.498 85.5865 377.463 85.1386 378.497 84.5529C379.566 83.9671 380.841 83.2091 382.358 82.2788L381.565 84.9663C378.325 87.3437 375.361 89.032 372.638 90.0312C369.915 91.0304 366.881 91.5128 363.504 91.5128C355.748 91.5128 349.751 89.4455 345.442 85.2764C341.134 81.1074 338.997 75.3189 338.997 67.9111C338.997 63.2941 339.927 59.2284 341.788 55.7139C343.719 52.1306 346.545 49.2364 350.337 46.9968C352.405 45.7909 354.611 44.895 356.989 44.2059C359.367 43.5513 361.711 43.2067 364.021 43.2067C371.293 43.2067 376.498 44.9639 379.6 48.4784C380.255 49.2019 380.841 49.9944 381.289 50.8558C381.737 51.6482 382.116 52.5785 382.392 53.6466C382.737 54.7147 382.944 55.8862 383.082 57.23C383.288 58.5393 383.426 60.1242 383.564 61.8814C383.702 63.3974 383.599 64.4655 383.254 65.0513C382.978 65.637 382.427 65.9471 381.565 65.9471H354.266V65.8782ZM364.779 63.2941C365.916 63.2941 366.813 63.2596 367.467 63.1907C368.122 63.1218 368.639 62.9495 368.95 62.7083C369.363 62.3638 369.57 61.9503 369.639 61.4335C369.708 60.9167 369.708 60.1931 369.639 59.2628V58.367C369.501 56.0585 369.294 54.3013 369.053 53.0953C368.777 51.855 368.398 50.7179 367.847 49.7187C366.537 47.4103 364.675 46.2388 362.297 46.2388C359.264 46.2388 357.127 47.8582 355.955 51.097C355.507 52.3373 355.128 53.8878 354.852 55.645C354.576 57.4367 354.404 59.9864 354.266 63.2941H364.779ZM386.839 73.9062H388.217C389.803 79.5913 391.63 83.5537 393.663 85.8277C395.731 88.0673 398.386 89.2043 401.695 89.2043C404.349 89.2043 406.382 88.5152 407.864 87.137C409.381 85.7588 410.139 83.8638 410.139 81.4864C410.139 79.3157 409.346 77.524 407.761 76.1114C407.347 75.8357 407.003 75.629 406.658 75.4223C406.382 75.1466 405.969 74.9399 405.383 74.7332C404.797 74.4575 404.004 74.2163 403.004 73.9407C402.005 73.5962 400.66 73.1827 398.937 72.6659C397.145 72.0801 395.559 71.4599 394.18 70.8742C392.802 70.2195 391.664 69.5649 390.803 68.8758C387.631 66.2917 386.046 62.9495 386.046 58.8494C386.046 56.1963 386.735 53.7155 388.114 51.407C389.493 49.0986 391.457 47.2035 393.974 45.7564C397.007 43.8958 400.971 42.9655 405.9 42.9655C408.071 42.9655 410.277 43.1378 412.449 43.4479C414.689 43.7925 416.688 44.2404 418.412 44.8261V58.7115H416.826C416.688 58.367 416.55 58.0913 416.412 57.8157C416.344 57.5401 416.24 57.3333 416.102 57.1266C415.585 55.9207 415.137 55.0248 414.827 54.3357C414.551 53.6811 414.344 53.1643 414.138 52.8542C414 52.4407 413.862 52.1995 413.724 52.0617C413.655 51.855 413.552 51.6138 413.414 51.2692C412.104 49.1675 410.76 47.617 409.45 46.7212C408.14 45.722 406.52 45.2396 404.59 45.2396C402.28 45.2396 400.419 45.8942 399.04 47.238C397.662 48.5473 396.972 50.3389 396.972 52.613C396.972 54.9904 397.834 56.851 399.557 58.1603C400.006 58.5737 400.488 58.8838 400.936 59.1594C401.453 59.4351 402.108 59.6763 402.832 59.9519C403.556 60.2276 404.452 60.5032 405.521 60.8478C406.658 61.1923 408.071 61.5713 409.795 62.0537C414.172 63.1907 417.274 64.7067 419.136 66.6018C420.997 68.4623 421.927 71.0465 421.927 74.3542C421.927 77.3173 421.169 80.1426 419.653 82.7957C418.136 85.3798 415.964 87.4127 413.207 88.9631C411.484 89.8934 409.622 90.5825 407.658 91.0304C405.658 91.4784 403.28 91.7196 400.523 91.7196C397.869 91.7196 395.249 91.4784 392.664 91.0304C390.079 90.617 387.356 89.9623 384.529 89.032L386.839 73.9062ZM419.377 45.0328L427.236 43.5513C427.89 42.8966 428.476 42.3109 429.028 41.7596C429.545 41.1739 430.028 40.5881 430.407 40.0713C430.855 39.4856 431.337 38.8309 431.785 38.1763C432.302 37.4527 432.923 36.5913 433.578 35.5921C435.301 33.008 436.611 31.0096 437.542 29.528C438.541 28.0809 439.403 26.6338 440.127 25.2556H441.505L440.816 44.3093L455.293 44.9984L453.018 47.6859L440.816 48.0994V69.6338C440.816 72.8726 441.264 75.3189 442.195 76.9727C442.919 78.282 443.987 79.3502 445.366 80.1426C446.745 80.8662 448.296 81.2452 450.019 81.2452C451.157 81.2452 452.191 81.1418 453.19 80.9351C454.259 80.6594 455.5 80.2115 456.947 79.5569L457.844 80.4527L449.502 88.7909C449.054 89.2388 448.054 89.6867 446.538 90.0657C445.021 90.5136 443.643 90.7548 442.367 90.7548C431.923 90.7548 426.684 86.1723 426.684 76.9727V48.0994L418.55 47.6859L419.377 45.0328Z" fill="#334155" stroke="#334155" stroke-miterlimit="10"/>
<path d="M332.413 145.401C332.413 146.124 332.413 147.158 332.413 148.467C332.482 149.708 332.551 151.292 332.62 153.119C332.689 154.841 332.792 156.047 332.93 156.805C333.137 157.529 333.482 158.08 334.033 158.494C334.55 158.907 335.377 159.286 336.515 159.7C337.652 160.113 338.79 160.389 339.996 160.595L341.995 160.905V163.283L339.927 163.179C337.549 163.111 335.515 163.042 333.861 162.973C332.275 162.973 330.862 162.973 329.587 162.973H325.899H321.831H318.764C317.385 162.973 315.799 162.973 314.007 162.973C312.284 163.042 310.25 163.145 307.837 163.283V160.905L309.733 160.595C311.318 160.251 312.663 159.906 313.8 159.493C315.007 159.045 315.799 158.528 316.178 158.011C316.385 157.736 316.523 157.425 316.592 157.012C316.73 156.599 316.868 156.013 317.006 155.22C317.144 154.29 317.213 152.912 317.213 151.051C317.281 149.191 317.316 147.33 317.316 145.401V114.15C317.316 113.426 317.281 112.427 317.213 111.187C317.213 109.877 317.178 108.292 317.109 106.432C317.04 104.709 316.902 103.503 316.695 102.745C316.558 102.022 316.247 101.47 315.696 101.057C314.49 100.196 312.525 99.5064 309.733 98.9896L307.837 98.6795V96.3021C310.215 96.4399 312.249 96.5433 313.904 96.6122C315.627 96.6122 317.247 96.6122 318.764 96.6122H321.831H328.966C330.035 96.6122 331.103 96.6122 332.241 96.6122C333.378 96.6122 334.481 96.5777 335.619 96.5088L337.687 96.4054H339.858L341.926 96.3021V98.6795L339.927 98.9896C338.411 99.2652 337.032 99.6098 335.86 100.092C334.654 100.54 333.861 101.057 333.482 101.574C333.275 101.849 333.102 102.159 332.999 102.573C332.93 102.986 332.827 103.572 332.689 104.365C332.551 105.295 332.448 106.673 332.379 108.534C332.379 110.325 332.379 112.22 332.379 114.184V126.278C334.688 126.278 336.618 126.313 338.135 126.381C339.651 126.45 341.134 126.485 342.616 126.485H345.787H348.854C350.371 126.485 351.888 126.45 353.404 126.381C354.921 126.313 356.851 126.278 359.161 126.278V114.184C359.161 113.461 359.126 112.427 359.057 111.118C359.057 109.808 359.023 108.224 358.954 106.466C358.885 104.744 358.747 103.538 358.54 102.78C358.402 102.056 358.092 101.505 357.541 101.091C357.024 100.678 356.196 100.299 355.059 99.8854C353.921 99.472 352.784 99.1963 351.577 98.9896L349.578 98.6795V96.3021L351.646 96.4054C354.025 96.4744 355.989 96.5433 357.506 96.6122C359.092 96.6122 360.505 96.6122 361.78 96.6122H365.468H369.742H372.81C374.327 96.6122 375.912 96.6122 377.567 96.6122C379.29 96.5433 381.324 96.4399 383.702 96.3021V98.6795L381.806 98.9896C380.221 99.3341 378.842 99.7131 377.636 100.196C376.498 100.609 375.74 101.057 375.361 101.574C375.154 101.849 374.982 102.159 374.878 102.573C374.809 102.986 374.706 103.572 374.568 104.365C374.43 105.295 374.327 106.673 374.258 108.534C374.258 110.394 374.258 112.255 374.258 114.184V145.401C374.258 146.124 374.258 147.158 374.258 148.467C374.327 149.708 374.396 151.292 374.464 153.119C374.533 154.841 374.637 156.047 374.775 156.805C374.982 157.529 375.326 158.08 375.878 158.494C377.084 159.355 379.049 160.044 381.841 160.561L383.737 160.871V163.248C381.358 163.111 379.29 163.007 377.601 162.938C375.878 162.938 374.258 162.938 372.741 162.938H369.777H362.814C361.746 162.938 360.677 162.938 359.54 162.938C358.402 162.938 357.23 162.973 355.955 163.042L353.887 163.145H351.715L349.647 163.248V160.905L351.646 160.595C353.163 160.32 354.542 159.975 355.714 159.493C356.92 159.045 357.713 158.528 358.092 158.011C358.299 157.736 358.437 157.425 358.506 157.012C358.643 156.599 358.781 156.013 358.919 155.22C359.057 154.29 359.126 152.946 359.126 151.155C359.195 149.294 359.229 147.399 359.229 145.401V129.827C356.92 129.689 354.99 129.62 353.473 129.62C351.957 129.551 350.44 129.517 348.923 129.517H345.856H342.685C341.237 129.517 339.755 129.551 338.204 129.62C336.687 129.62 334.757 129.689 332.448 129.827V145.401H332.413ZM419.721 155.048C416.688 158.494 413.724 160.974 410.898 162.49C408.106 164.006 405.245 164.696 402.246 164.558C400.385 164.42 398.592 164.006 396.903 163.283C395.18 162.559 393.767 161.56 392.629 160.32C390.561 158.08 389.562 154.669 389.562 150.087V130.034V124.969C389.562 124.038 389.458 123.349 389.251 122.901C389.114 122.385 388.838 122.006 388.355 121.799C387.907 121.523 387.218 121.351 386.356 121.213C385.563 121.075 384.529 120.903 383.288 120.731V118.732C384.736 118.732 386.149 118.663 387.459 118.526C388.769 118.388 390.527 118.147 392.733 117.837C393.939 117.63 394.973 117.458 395.904 117.354C396.834 117.216 397.696 117.079 398.489 116.941C399.351 116.734 400.212 116.562 401.074 116.458C401.936 116.321 402.935 116.148 404.038 115.976C403.9 117.182 403.797 118.147 403.728 118.939C403.728 119.663 403.728 120.386 403.728 121.11C403.728 122.247 403.694 123.039 403.625 123.487C403.625 123.901 403.625 124.211 403.625 124.486V125.486V127.656V145.125C403.625 148.708 404.349 151.396 405.796 153.256C407.244 155.117 409.381 156.047 412.138 156.047C413.655 156.047 414.861 155.841 415.723 155.462C416.654 155.048 417.481 154.359 418.205 153.394C418.998 152.326 419.411 151.327 419.411 150.328V130.068V125.003C419.411 124.073 419.308 123.384 419.101 122.936C418.963 122.419 418.687 122.04 418.205 121.833C417.757 121.558 417.067 121.385 416.206 121.248C415.413 121.11 414.379 120.938 413.138 120.765V118.767C414.586 118.767 415.999 118.698 417.309 118.56C418.618 118.422 420.376 118.181 422.582 117.871C423.789 117.664 424.823 117.492 425.753 117.389C426.684 117.251 427.546 117.113 428.339 116.975C429.2 116.768 430.062 116.596 430.924 116.493C431.785 116.355 432.785 116.183 433.888 116.01C433.75 117.802 433.647 119.835 433.578 122.178C433.509 124.486 433.474 126.347 433.474 127.725V150.362C433.474 153.256 433.509 155.289 433.578 156.426C433.647 157.494 433.819 158.287 434.06 158.804C434.267 159.217 434.646 159.596 435.267 160.01C435.922 160.354 436.645 160.561 437.438 160.699L440.299 161.181V163.352C437.576 163.214 435.508 163.111 434.06 163.042C432.613 163.042 431.027 163.042 429.304 163.042C428.166 163.042 426.891 163.042 425.443 163.042C423.996 163.111 422.065 163.214 419.687 163.352V155.048H419.721ZM458.429 125.279C460.498 123.625 462.152 122.385 463.393 121.523C464.634 120.662 465.84 119.869 466.978 119.146C468.356 118.353 469.942 117.733 471.734 117.251C473.596 116.734 475.353 116.458 477.008 116.458C479.524 116.458 481.799 116.906 483.867 117.837C485.97 118.698 487.762 119.938 489.244 121.592C490.692 123.246 491.829 125.279 492.622 127.656C493.415 129.965 493.828 132.549 493.828 135.409C493.828 145.056 490.278 152.533 483.212 157.839C480.42 159.837 477.422 161.353 474.182 162.387C470.941 163.455 467.598 163.972 464.151 163.972C461.29 163.972 458.843 163.593 456.809 162.869C455.293 162.215 453.983 161.698 452.846 161.388C451.777 161.043 451.019 160.871 450.571 160.802C450.364 160.802 450.088 160.905 449.674 161.112C449.295 161.319 448.847 161.595 448.365 162.008C447.986 162.353 447.469 162.697 446.883 163.111C446.297 163.558 445.642 164.11 444.883 164.696H443.884L443.987 162.525V160.458V158.287L444.091 155.014C444.16 153.946 444.194 153.084 444.194 152.429C444.194 151.706 444.194 151.12 444.194 150.638V148.846C444.194 148.433 444.194 148.157 444.194 147.95C444.263 147.675 444.297 147.158 444.297 146.365C444.366 145.849 444.401 145.366 444.401 144.987C444.401 144.539 444.401 144.126 444.401 143.781V142.3V107.018V101.643C444.401 100.712 444.297 100.023 444.091 99.5753C443.953 99.0585 443.677 98.6795 443.194 98.4728C442.746 98.1971 442.057 98.0248 441.195 97.887C440.403 97.7492 439.368 97.5769 438.128 97.4047V95.4063C439.575 95.3373 441.023 95.234 442.505 95.0962C444.022 94.9583 445.607 94.7861 447.262 94.6138C448.916 94.3381 450.674 94.0625 452.535 93.718C454.466 93.3734 456.568 92.9944 458.878 92.512C458.809 93.3734 458.74 94.097 458.671 94.6827C458.671 95.2684 458.671 95.8886 458.671 96.4744C458.671 96.9912 458.636 97.5769 458.567 98.1627C458.567 98.7484 458.567 99.4375 458.567 100.23C458.498 101.16 458.464 102.091 458.464 103.021C458.464 103.882 458.464 104.778 458.464 105.708V110.256V125.279H458.429ZM458.429 151.051C458.429 152.981 458.498 154.325 458.636 155.117C458.774 155.909 459.05 156.633 459.532 157.288C461.118 159.458 463.669 160.561 467.184 160.561C469.253 160.561 470.907 160.147 472.251 159.355C473.561 158.494 474.767 157.115 475.836 155.186C476.905 153.256 477.732 151.051 478.318 148.536C478.904 146.021 479.214 143.368 479.214 140.611C479.214 135.443 478.145 131.446 476.043 128.621C473.975 125.727 471.079 124.245 467.322 124.245C464.289 124.245 461.773 125.279 459.774 127.312C459.326 127.76 458.981 128.173 458.774 128.518C458.567 128.793 458.464 129.379 458.464 130.309V132.583L458.429 151.051Z" fill="#334155" stroke="#334155" stroke-miterlimit="10"/>
<path d="M277.091 16.0216L280.573 15.367C280.883 15.0569 281.124 14.8157 281.365 14.5745C281.607 14.2989 281.813 14.0577 281.986 13.8165C282.193 13.5409 282.399 13.2652 282.606 12.9896C282.848 12.6795 283.123 12.3005 283.399 11.8526C284.157 10.7155 284.743 9.8197 285.157 9.16505C285.605 8.51041 285.984 7.89021 286.294 7.27002H286.915L286.605 15.746L293.05 16.0561L292.051 17.262L286.639 17.4343V27.0128C286.639 28.4599 286.846 29.528 287.259 30.286C287.57 30.8718 288.052 31.3542 288.673 31.6987C289.293 32.0088 289.982 32.1811 290.741 32.1811C291.258 32.1811 291.706 32.1466 292.154 32.0433C292.637 31.9399 293.188 31.7332 293.843 31.4231L294.257 31.8365L290.5 35.4888C290.293 35.6955 289.845 35.9022 289.19 36.0745C288.5 36.2812 287.88 36.3846 287.328 36.3846C282.675 36.3846 280.366 34.3518 280.366 30.2516V17.3998L276.712 17.2276L277.091 16.0216ZM302.46 18.9503C303.425 18.2268 304.287 17.6066 305.011 17.1586C305.769 16.6418 306.493 16.2628 307.113 15.9527C307.768 15.6426 308.389 15.4359 308.975 15.3325C309.561 15.2292 310.181 15.1602 310.836 15.1602C314.248 15.1602 315.937 17.0897 315.937 20.9832V30.2171C315.937 31.2163 315.937 32.0088 315.937 32.5601C315.972 33.1114 316.041 33.5593 316.144 33.8349C316.247 34.1106 316.454 34.3518 316.661 34.4551C316.902 34.5585 317.213 34.6963 317.626 34.7997L318.695 35.0064V35.9711C317.867 35.9367 317.178 35.9022 316.627 35.8678C316.075 35.8678 315.593 35.8678 315.179 35.8333C314.765 35.8333 314.386 35.8333 314.076 35.8333C313.766 35.8333 313.421 35.8333 313.111 35.8333H311.663H310.457C310.215 35.8333 309.974 35.8333 309.767 35.8333C309.561 35.8333 309.354 35.8333 309.112 35.8678C308.837 35.8678 308.492 35.8678 308.044 35.8678C307.63 35.9022 307.148 35.9367 306.596 35.9711V35.0064L307.975 34.7997C308.285 34.7308 308.595 34.6274 308.871 34.4896C309.181 34.3173 309.354 34.145 309.457 33.9727C309.561 33.7316 309.664 33.387 309.664 32.8702C309.664 32.3534 309.698 31.492 309.698 30.2171V23.8774C309.698 22.9816 309.664 22.2925 309.561 21.8101C309.492 21.2933 309.354 20.8109 309.147 20.4319C308.871 19.9151 308.458 19.5016 307.872 19.1915C307.32 18.8814 306.7 18.7091 306.01 18.7091C305.114 18.7091 304.321 18.9159 303.529 19.3293C303.115 19.5705 302.839 19.8461 302.632 20.1562C302.495 20.4663 302.426 20.9487 302.426 21.6034V30.1482C302.426 31.4231 302.426 32.2844 302.46 32.8013C302.495 33.3181 302.563 33.6627 302.667 33.9038C302.77 34.0761 302.943 34.2484 303.184 34.4207C303.494 34.5585 303.77 34.6619 304.115 34.7308L305.493 34.9375V35.9022C304.356 35.8333 303.391 35.7989 302.632 35.7644C301.874 35.7644 301.047 35.7644 300.22 35.7644H298.358C297.462 35.7644 296.6 35.7644 295.842 35.7644C295.118 35.7989 294.188 35.8333 293.05 35.9022V34.9375L294.429 34.7308C294.739 34.6619 295.049 34.5585 295.325 34.4207C295.635 34.2484 295.808 34.0761 295.911 33.9038C296.014 33.6627 296.118 33.3181 296.118 32.8013C296.152 32.2844 296.152 31.4231 296.152 30.1482V10.9567C296.152 9.88861 296.152 9.09614 296.118 8.57932C296.118 8.02803 296.014 7.61457 295.808 7.37339C295.635 7.09775 295.325 6.95992 294.877 6.89101C294.429 6.8221 293.774 6.75319 292.878 6.68428V5.78845C294.188 5.754 295.532 5.65063 296.98 5.47835C298.462 5.27162 300.323 4.96153 302.598 4.51361C302.563 4.89262 302.529 5.20271 302.495 5.47835C302.495 5.754 302.495 5.99518 302.495 6.27082C302.495 6.51201 302.495 6.75319 302.46 7.02884C302.46 7.30448 302.46 7.61457 302.46 7.95912C302.46 8.78605 302.46 9.57851 302.426 10.371C302.426 11.1635 302.426 11.8526 302.426 12.4038V18.9503H302.46ZM325.864 25.2901C325.933 26.8061 326.071 28.012 326.312 28.9078C326.553 29.8037 326.933 30.6651 327.519 31.5609C328.07 32.4567 328.828 33.1803 329.828 33.7316C330.828 34.2484 331.862 34.524 332.93 34.524C333.447 34.524 333.861 34.524 334.24 34.4896C334.619 34.4207 334.998 34.3518 335.377 34.2139C335.757 34.0761 336.17 33.8694 336.653 33.5937C337.135 33.3181 337.687 33.008 338.376 32.5945L338.031 33.8005C336.584 34.8686 335.274 35.5921 334.068 36.0401C332.861 36.488 331.517 36.6947 330 36.6947C326.553 36.6947 323.899 35.7644 321.969 33.9038C320.073 32.0433 319.108 29.4936 319.108 26.1859C319.108 24.1186 319.522 22.3269 320.349 20.7764C321.211 19.1915 322.452 17.8822 324.141 16.883C325.037 16.3662 326.036 15.9527 327.105 15.6426C328.173 15.3325 329.208 15.1947 330.242 15.1947C333.482 15.1947 335.791 15.9872 337.17 17.5377C337.48 17.8477 337.721 18.2268 337.928 18.6058C338.135 18.9503 338.307 19.3638 338.411 19.8461C338.548 20.3285 338.652 20.8453 338.721 21.4311C338.824 22.0168 338.893 22.7059 338.928 23.4984C338.997 24.1875 338.928 24.6354 338.79 24.911C338.686 25.1867 338.411 25.3245 338.031 25.3245L325.864 25.2901ZM330.552 24.153C331.069 24.153 331.448 24.153 331.758 24.1186C332.068 24.0841 332.275 24.0152 332.413 23.9118C332.585 23.774 332.689 23.5673 332.723 23.3261C332.758 23.0849 332.758 22.7748 332.723 22.3614V21.9479C332.654 20.9143 332.585 20.1562 332.448 19.605C332.344 19.0537 332.137 18.5368 331.931 18.0889C331.345 17.0553 330.517 16.5385 329.449 16.5385C328.105 16.5385 327.139 17.262 326.622 18.7091C326.416 19.2604 326.243 19.9495 326.14 20.742C326.036 21.5344 325.933 22.6715 325.864 24.153H330.552V24.153Z" fill="#334155" stroke="#334155" stroke-miterlimit="10"/>
<path fill-rule="evenodd" clip-rule="evenodd" d="M86.1709 172.276C133.772 172.276 172.342 133.72 172.342 86.1378C172.342 38.5553 133.772 0 86.1709 0C38.5701 0 0 38.5553 0 86.1378C0 133.72 38.5701 172.276 86.1709 172.276ZM86.1709 155.048C124.259 155.048 155.108 124.211 155.108 86.1378C155.108 48.0649 124.259 17.2276 86.1709 17.2276C48.0834 17.2276 17.2342 48.0649 17.2342 86.1378C17.2342 124.211 48.0834 155.048 86.1709 155.048Z" fill="#334155"/>
<path d="M108.231 108.189L134.53 130.757C150.041 144.057 172.928 144.057 188.404 130.757L214.738 108.189L192.161 134.478C178.856 149.983 178.856 172.861 192.161 188.332L214.738 214.655L188.439 192.087C172.928 178.788 150.041 178.788 134.565 192.087L108.231 214.655L130.808 188.366C144.112 172.861 144.112 149.983 130.808 134.513L108.231 108.189Z" fill="#334155"/>
</svg>
